<?xml version="1.0" encoding="UTF-8" standalone="no"?>
<!DOCTYPE svg PUBLIC "-//W3C//DTD SVG 20010904//EN"
              "http://www.w3.org/TR/2001/REC-SVG-20010904/DTD/svg10.dtd">

<svg xmlns="http://www.w3.org/2000/svg"
     width="0.4in" height="0.213333in"
     viewBox="0 0 120 64">
  <path id="Selection"
        fill="black" stroke="black" stroke-width="1"
        d="M 11.00,11.00
           C 11.00,11.00 41.00,11.00 41.00,11.00
             41.00,11.00 41.00,21.00 41.00,21.00
             41.00,21.00 38.00,21.00 38.00,21.00
             38.00,21.00 38.00,14.00 38.00,14.00
             38.00,14.00 23.00,14.00 23.00,14.00
             23.00,14.00 23.00,38.00 23.00,38.00
             23.00,38.00 38.00,38.00 38.00,38.00
             38.00,38.00 38.00,30.00 38.00,30.00
             38.00,30.00 29.00,30.00 29.00,30.00
             29.00,30.00 29.00,27.00 29.00,27.00
             29.00,27.00 41.00,27.00 41.00,27.00
             41.00,27.00 41.00,41.00 41.00,41.00
             41.00,41.00 11.00,41.00 11.00,41.00
             11.00,41.00 11.00,11.00 11.00,11.00 Z
           M 44.00,11.00
           C 44.00,11.00 74.00,11.00 74.00,11.00
             74.00,11.00 74.00,41.00 74.00,41.00
             74.00,41.00 71.00,41.00 71.00,41.00
             71.00,41.00 71.00,30.00 71.00,30.00
             71.00,30.00 56.00,30.00 56.00,30.00
             56.00,30.00 56.00,41.00 56.00,41.00
             56.00,41.00 44.00,41.00 44.00,41.00
             44.00,41.00 44.00,11.00 44.00,11.00 Z
           M 77.00,11.00
           C 77.00,11.00 107.00,11.00 107.00,11.00
             107.00,11.00 107.00,17.00 107.00,17.00
             107.00,17.00 89.00,32.00 89.00,32.00
             89.00,32.00 89.00,38.00 89.00,38.00
             89.00,38.00 104.00,38.00 104.00,38.00
             104.00,38.00 104.00,32.00 104.00,32.00
             104.00,32.00 107.00,32.00 107.00,32.00
             107.00,32.00 107.00,41.00 107.00,41.00
             107.00,41.00 77.00,41.00 77.00,41.00
             77.00,41.00 77.00,32.00 77.00,32.00
             77.00,32.00 89.00,32.00 89.00,32.00
             89.00,32.00 104.00,14.00 104.00,14.00
             104.00,14.00 89.00,14.00 89.00,14.00
             89.00,14.00 89.00,21.00 89.00,21.00
             89.00,21.00 77.00,21.00 77.00,21.00
             77.00,21.00 77.00,11.00 77.00,11.00 Z
           M 71.00,14.00
           C 71.00,14.00 56.00,14.00 56.00,14.00
             56.00,14.00 56.00,27.00 56.00,27.00
             56.00,27.00 71.00,27.00 71.00,27.00
             71.00,27.00 71.00,14.00 71.00,14.00 Z" />
</svg>
